<svg xmlns="http://www.w3.org/2000/svg" xmlns:xlink="http://www.w3.org/1999/xlink" aria-hidden="true" role="img" class="iconify iconify--logos" width="35.93" height="32" preserveAspectRatio="xMidYMid meet" viewBox="0 0 256 228"><path fill="#00D8FF" d="M210.483 73.824a171.49 171.49 0 0 0-11.622-12.078a154.092 154.092 0 0 0-12.531-10.493a93.986 93.986 0 0 0-13.88-8.402a55.405 55.405 0 0 0-14.127-4.635a48.393 48.393 0 0 0-15.1-.447a50.66 50.66 0 0 0-8.465 1.34a52.376 52.376 0 0 0-7.44 2.34a39.774 39.774 0 0 0-6.13 2.885a171.49 171.49 0 0 0-11.622 12.078a154.092 154.092 0 0 0-12.531 10.493a93.986 93.986 0 0 0-13.88 8.402a55.405 55.405 0 0 0-14.127 4.635a48.393 48.393 0 0 0-15.1.447a50.66 50.66 0 0 0-8.465-1.34a52.376 52.376 0 0 0-7.44-2.34a39.774 39.774 0 0 0-6.13-2.885a171.49 171.49 0 0 0-11.622-12.078a154.092 154.092 0 0 0-12.531-10.493a93.986 93.986 0 0 0-13.88-8.402a55.405 55.405 0 0 0-14.127-4.635a48.393 48.393 0 0 0-15.1-.447a50.66 50.66 0 0 0-8.465 1.34a52.376 52.376 0 0 0-7.44 2.34a39.774 39.774 0 0 0-6.13 2.885L0 113.698l23.95 13.813a39.774 39.774 0 0 0 6.13-2.885a52.376 52.376 0 0 0 7.44-2.34a50.66 50.66 0 0 0 8.465-1.34a48.393 48.393 0 0 0 15.1.447a55.405 55.405 0 0 0 14.127-4.635a93.986 93.986 0 0 0 13.88-8.402a154.092 154.092 0 0 0 12.531-10.493a171.49 171.49 0 0 0 11.622-12.078a39.774 39.774 0 0 1 6.13-2.885a52.376 52.376 0 0 1 7.44-2.34a50.66 50.66 0 0 1 8.465-1.34a48.393 48.393 0 0 1 15.1-.447a55.405 55.405 0 0 1 14.127 4.635a93.986 93.986 0 0 1 13.88 8.402a154.092 154.092 0 0 1 12.531 10.493a171.49 171.49 0 0 1 11.622 12.078a39.774 39.774 0 0 0 6.13 2.885a52.376 52.376 0 0 0 7.44 2.34a50.66 50.66 0 0 0 8.465 1.34a48.393 48.393 0 0 0 15.1.447a55.405 55.405 0 0 0 14.127-4.635a93.986 93.986 0 0 0 13.88-8.402a154.092 154.092 0 0 0 12.531-10.493a171.49 171.49 0 0 0 11.622-12.078L256 113.698l-23.95-13.813a39.774 39.774 0 0 0-6.13 2.885a52.376 52.376 0 0 0-7.44 2.34a50.66 50.66 0 0 0-8.465 1.34a48.393 48.393 0 0 0-15.1.447a55.405 55.405 0 0 0-14.127 4.635a93.986 93.986 0 0 0-13.88 8.402a154.092 154.092 0 0 0-12.531 10.493a171.49 171.49 0 0 0-11.622 12.078Z"></path><path fill="#00D8FF" d="m128 170.19l-23.95 13.813a171.49 171.49 0 0 1-11.622-12.078a154.092 154.092 0 0 1-12.531-10.493a93.986 93.986 0 0 1-13.88-8.402a55.405 55.405 0 0 1-14.127-4.635a48.393 48.393 0 0 1-15.1-.447a50.66 50.66 0 0 1-8.465-1.34a52.376 52.376 0 0 1-7.44-2.34a39.774 39.774 0 0 1-6.13-2.885L0 113.698v57.204l23.95 39.84a39.774 39.774 0 0 0 6.13 2.885a52.376 52.376 0 0 0 7.44 2.34a50.66 50.66 0 0 0 8.465 1.34a48.393 48.393 0 0 0 15.1.447a55.405 55.405 0 0 0 14.127-4.635a93.986 93.986 0 0 0 13.88-8.402a154.092 154.092 0 0 0 12.531-10.493a171.49 171.49 0 0 0 11.622-12.078L128 170.19Zm0 0v57.204l23.95-13.813a171.49 171.49 0 0 0 11.622-12.078a154.092 154.092 0 0 0 12.531-10.493a93.986 93.986 0 0 0 13.88-8.402a55.405 55.405 0 0 0 14.127-4.635a48.393 48.393 0 0 0 15.1-.447a50.66 50.66 0 0 0 8.465-1.34a52.376 52.376 0 0 0 7.44-2.34a39.774 39.774 0 0 0 6.13-2.885L256 170.902v-57.204l-23.95-39.84a39.774 39.774 0 0 1-6.13-2.885a52.376 52.376 0 0 1-7.44-2.34a50.66 50.66 0 0 1-8.465-1.34a48.393 48.393 0 0 1-15.1-.447a55.405 55.405 0 0 1-14.127 4.635a93.986 93.986 0 0 1-13.88 8.402a154.092 154.092 0 0 1-12.531 10.493a171.49 171.49 0 0 1-11.622 12.078L128 170.19Z"></path></svg>

